<?xml version="1.0" encoding="UTF-8" standalone="no"?>
<!-- Created with Inkscape (http://www.inkscape.org/) -->

<svg
   version="1.1"
   id="svg132"
   width="400"
   height="400"
   viewBox="0 0 399.99999 400.00001"
   sodipodi:docname="MareGraph_v2.svg"
   inkscape:version="1.1.2 (0a00cf5339, 2022-02-04)"
   xmlns:inkscape="http://www.inkscape.org/namespaces/inkscape"
   xmlns:sodipodi="http://sodipodi.sourceforge.net/DTD/sodipodi-0.dtd"
   xmlns="http://www.w3.org/2000/svg"
   xmlns:svg="http://www.w3.org/2000/svg">
  <defs
     id="defs136" />
  <sodipodi:namedview
     id="namedview134"
     pagecolor="#ffffff"
     bordercolor="#000000"
     borderopacity="0.25"
     inkscape:showpageshadow="2"
     inkscape:pageopacity="0.0"
     inkscape:pagecheckerboard="0"
     inkscape:deskcolor="#d1d1d1"
     showgrid="false"
     inkscape:zoom="1.4835225"
     inkscape:cx="146.27348"
     inkscape:cy="158.06973"
     inkscape:window-width="1920"
     inkscape:window-height="1016"
     inkscape:window-x="0"
     inkscape:window-y="0"
     inkscape:window-maximized="1"
     inkscape:current-layer="g138"
     inkscape:pageshadow="2"
     fit-margin-top="0"
     fit-margin-left="0"
     fit-margin-right="0"
     fit-margin-bottom="0" />
  <g
     inkscape:groupmode="layer"
     inkscape:label="Image"
     id="g138"
     transform="translate(-301.84013,-72.008665)">
    <g
       id="g25679"
       transform="translate(314.37855,95.578112)">
      <path
         style="opacity:0.95;fill:#081236;fill-opacity:1;fill-rule:evenodd;stroke:#003869;stroke-width:0.234331;stroke-linecap:round;stroke-opacity:1;paint-order:markers stroke fill"
         d="m 115.76815,194.05136 c -0.22257,0.41973 0.0736,1.90073 0.51801,3.57924 0.44438,1.67852 1.03677,3.55442 1.45638,4.91201 0.4196,1.3576 0.66643,2.19681 1.0615,3.15948 0.39506,0.96267 0.93809,2.04872 1.23403,2.91258 0.29594,0.86386 0.34531,1.50562 0.96248,1.43095 0.61717,-0.0747 1.80195,-0.86453 2.93729,-1.77775 1.13534,-0.91323 2.2214,-1.94992 3.18398,-3.03591 0.96259,-1.08598 1.80181,-2.2214 2.51761,-3.3074 0.71579,-1.08601 1.30818,-2.12269 1.65374,-2.789 0.34556,-0.66631 0.4443,-0.96251 -0.19695,-1.0369 -0.64124,-0.0744 -2.02348,0.0737 -3.23282,-0.0248 -1.20934,-0.0985 -2.24602,-0.44405 -3.50489,-0.88833 -1.25886,-0.44429 -2.73984,-0.98731 -3.92466,-1.38231 -1.18482,-0.39499 -2.07341,-0.64182 -2.88803,-1.08583 -0.81462,-0.44401 -1.5551,-1.08577 -1.77767,-0.66603 z"
         id="path308"
         inkscape:original-d="m 115.24915,192.98893 c 0.2972,1.48201 0.5934,2.96301 0.8886,4.44301 0.59341,1.87698 1.1858,3.75288 1.7772,5.62782 0.24784,0.84026 0.49467,1.67947 0.74051,2.51771 0.54404,1.08709 1.08707,2.17314 1.6291,3.25821 0.0504,0.64278 0.0997,1.28454 0.1481,1.92531 1.18583,-0.78889 2.37061,-1.57874 3.55441,-2.36961 1.08709,-1.03572 2.17314,-2.07241 3.25821,-3.11011 0.84026,-1.13446 1.67948,-2.26987 2.51771,-3.40631 0.59342,-1.03573 1.18581,-2.07241 1.77721,-3.11011 0.0997,-0.29521 0.19846,-0.5914 0.2962,-0.8886 -1.3813,0.1491 -2.76354,0.2972 -4.14682,0.4443 -1.03572,-0.34458 -2.0724,-0.69014 -3.11011,-1.03671 -1.48003,-0.54204 -2.961,-1.08507 -4.44301,-1.6291 -0.88762,-0.24584 -1.7762,-0.49267 -2.66581,-0.7405 -0.73951,-0.64079 -1.48,-1.28254 -2.2215,-1.92531 z" />
      <path
         style="opacity:0.95;fill:#081236;fill-opacity:1;fill-rule:evenodd;stroke:#003869;stroke-width:0.234331;stroke-linecap:round;stroke-opacity:1;paint-order:markers stroke fill"
         d="m 138.52637,199.25906 c 0.66656,-0.74115 2.69059,-0.98798 4.44297,-1.38297 1.75239,-0.39499 3.23336,-0.93802 4.7142,-1.72786 1.48084,-0.78985 2.96182,-1.82654 4.2206,-2.83851 1.25877,-1.01197 2.29545,-1.99929 3.4309,-3.08537 1.13545,-1.08608 2.3696,-2.27085 3.28278,-3.48013 0.91318,-1.20928 1.50557,-2.44343 1.9747,-3.20886 0.46913,-0.76544 0.81469,-1.06163 1.43209,-0.46859 0.61741,0.59304 1.50599,2.07402 2.51812,3.50562 1.01212,1.43161 2.14754,2.81385 3.33249,3.92446 1.18494,1.11061 2.41908,1.94982 3.60389,2.78909 1.1848,0.83927 2.32021,1.67849 3.45569,2.41892 1.13548,0.74043 2.2709,1.38219 3.48034,1.75215 1.20944,0.36996 2.49295,0.46869 3.77647,0.51801 1.28351,0.0493 2.56702,0.0493 2.83794,0.69127 0.27092,0.64194 -0.46957,1.92545 -1.30875,3.11014 -0.83919,1.1847 -1.77714,2.27075 -2.83849,3.38146 -1.06136,1.11072 -2.24614,2.24613 -3.43085,3.20872 -1.18471,0.9626 -2.36949,1.75245 -3.70236,2.567 -1.33287,0.81455 -2.81385,1.65377 -4.41812,2.32022 -1.60427,0.66646 -3.33208,1.16011 -5.1338,1.38237 -1.80173,0.22226 -3.67763,0.17289 -5.75098,-0.1972 -2.07335,-0.37009 -4.34417,-1.06121 -6.07202,-1.70287 -1.72785,-0.64165 -2.91263,-1.23404 -4.0481,-1.90041 -1.13547,-0.66637 -2.22152,-1.40685 -3.28295,-2.19668 -1.06142,-0.78983 -2.0981,-1.62905 -3.0609,-2.66564 -0.9628,-1.03659 -1.85139,-2.27074 -2.64134,-3.50489 -0.78995,-1.23415 -1.48107,-2.4683 -0.81452,-3.20945 z"
         id="path5780"
         inkscape:original-d="m 137.16802,198.76485 c 2.02504,-0.24584 4.04907,-0.49267 6.07211,-0.7405 1.48204,-0.54205 2.96301,-1.08507 4.44302,-1.62911 1.48203,-1.03572 2.96301,-2.07241 4.44301,-3.11011 1.03773,-0.98635 2.07441,-1.97367 3.11011,-2.96201 1.2352,-1.18383 2.46934,-2.36861 3.70252,-3.55441 0.59341,-1.23319 1.1858,-2.46734 1.7772,-3.70251 0.34658,-0.29521 0.69214,-0.5914 1.0367,-0.8886 0.88962,1.48203 1.77821,2.96301 2.66581,4.44301 1.13646,1.3833 2.27188,2.76554 3.40631,4.14681 1.2352,0.84026 2.46934,1.67948 3.70252,2.51771 1.13646,0.84025 2.27187,1.67947 3.40631,2.51771 1.13646,0.64278 2.27187,1.28454 3.40631,1.92531 1.28456,0.0997 2.56807,0.19846 3.85061,0.2962 1.28456,0.001 2.56807,0.001 3.85061,0 -0.73952,1.28456 -1.48,2.56807 -2.22151,3.85061 -0.93698,1.08709 -1.87493,2.17314 -2.8139,3.25821 -1.18383,1.13646 -2.36861,2.27187 -3.55442,3.40631 -1.18382,0.79089 -2.3686,1.58074 -3.55441,2.36961 -1.48003,0.84025 -2.96101,1.67947 -4.44301,2.51771 -1.72687,0.49467 -3.45468,0.98833 -5.18352,1.481 -1.87497,-0.0484 -3.75088,-0.0977 -5.62782,-0.1481 -2.26992,-0.69015 -4.54074,-1.38127 -6.81262,-2.07341 -1.18383,-0.59141 -2.36861,-1.1838 -3.55441,-1.7772 -1.08509,-0.73952 -2.17114,-1.48001 -3.25821,-2.22151 -1.03572,-0.83825 -2.07241,-1.67747 -3.11011,-2.51771 -0.88762,-1.23319 -1.77621,-2.46734 -2.66581,-3.70251 -0.69015,-1.23319 -1.38127,-2.46734 -2.0734,-3.70251 z" />
      <path
         style="opacity:0.95;fill:#081236;fill-opacity:1;fill-rule:evenodd;stroke:#003869;stroke-width:0.234331;stroke-linecap:round;stroke-opacity:1;paint-order:markers stroke fill"
         d="m 193.6939,199.03686 c 0.64176,-0.51895 2.56706,-0.76579 4.122,-1.08672 1.55494,-0.32094 2.73972,-0.71586 3.94909,-1.2589 1.20936,-0.54304 2.44351,-1.23416 3.62828,-1.94997 1.18477,-0.71581 2.32019,-1.4563 3.38149,-2.2708 1.0613,-0.81451 2.04862,-1.7031 2.93714,-2.66566 0.88852,-0.96256 1.67838,-1.99925 2.34482,-2.91251 0.66644,-0.91326 1.20947,-1.70312 1.60437,-2.36945 0.39491,-0.66634 0.64174,-1.20937 1.16055,-0.81406 0.51881,0.39532 1.30867,1.7282 2.22209,2.96231 0.91343,1.23411 1.9501,2.36952 2.96222,3.3074 1.01211,0.93788 1.99943,1.67837 3.03614,2.46825 1.03671,0.78989 2.12276,1.62911 3.30762,2.34478 1.18486,0.71568 2.46838,1.30806 3.70254,1.72753 1.23416,0.41946 2.41894,0.66629 3.50504,0.96258 1.0861,0.2963 2.07341,0.64186 2.98651,0.74031 0.91309,0.0985 1.75231,-0.0496 1.67777,0.64171 -0.0745,0.69134 -1.06185,2.22168 -1.97499,3.30757 -0.91314,1.0859 -1.75236,1.72765 -2.36962,2.39433 -0.61726,0.66668 -1.01218,1.3578 -1.62913,2.04874 -0.61695,0.69094 -1.45617,1.38206 -2.17193,1.92506 -0.71576,0.543 -1.30815,0.93793 -1.94989,1.33286 -0.64173,0.39492 -1.33284,0.78985 -2.39423,1.38226 -1.06139,0.59241 -2.49301,1.38226 -3.72703,1.9253 -1.23402,0.54304 -2.2707,0.83923 -3.25788,0.98742 -0.98718,0.1482 -1.92513,0.1482 -3.10995,0.1482 -1.18481,0 -2.61642,0 -3.97396,-0.0987 -1.35753,-0.0986 -2.64104,-0.29611 -3.92456,-0.64154 -1.28351,-0.34543 -2.56702,-0.83909 -3.97401,-1.55479 -1.40699,-0.7157 -2.93733,-1.65365 -4.14686,-2.46814 -1.20952,-0.81449 -2.09811,-1.5056 -2.91282,-2.3694 -0.81471,-0.86379 -1.55519,-1.90047 -2.27104,-2.93718 -0.71584,-1.0367 -1.40697,-2.07339 -2.07337,-2.98671 -0.6664,-0.91333 -1.30815,-1.70318 -0.6664,-2.22213 z"
         id="path5784"
         inkscape:original-d="m 192.40949,198.76485 c 1.92631,-0.24584 3.85161,-0.49267 5.77592,-0.7405 1.18583,-0.39395 2.37061,-0.78887 3.55441,-1.18481 1.2352,-0.69015 2.46934,-1.38127 3.70251,-2.0734 1.13646,-0.73952 2.27188,-1.48001 3.40632,-2.22151 0.98835,-0.88762 1.97567,-1.77621 2.962,-2.66581 0.79089,-1.03572 1.58074,-2.07241 2.36961,-3.11011 0.54405,-0.78888 1.08707,-1.57874 1.62911,-2.36961 0.24784,-0.54204 0.49467,-1.08507 0.7405,-1.6291 0.79088,1.33393 1.58074,2.66681 2.36961,3.99871 1.03772,1.13646 2.0744,2.27187 3.11011,3.40631 0.98835,0.74152 1.97567,1.48201 2.96201,2.22151 1.08709,0.84025 2.17314,1.67947 3.25821,2.51771 1.28456,0.59341 2.56807,1.1858 3.85061,1.7772 1.18583,0.24784 2.37061,0.49467 3.55441,0.7405 0.98836,0.34658 1.97567,0.69214 2.96201,1.03671 0.84025,-0.14711 1.67947,-0.2952 2.51771,-0.4443 -0.98636,1.5314 -1.97367,3.06174 -2.96201,4.59111 -0.83825,0.64278 -1.67747,1.28454 -2.51771,1.92531 -0.39394,0.69215 -0.78887,1.38327 -1.1848,2.0734 -0.83826,0.69215 -1.67747,1.38328 -2.51771,2.07341 -0.59141,0.39594 -1.1838,0.79087 -1.77721,1.1848 -0.69015,0.39595 -1.38127,0.79087 -2.0734,1.18481 -1.43067,0.79088 -2.86228,1.58074 -4.29492,2.36961 -1.03572,0.2972 -2.0724,0.5934 -3.11011,0.8886 -0.93699,10e-4 -1.87494,10e-4 -2.81391,0 -1.43066,10e-4 -2.86227,10e-4 -4.29491,0 -1.28256,-0.19647 -2.56607,-0.39394 -3.85061,-0.5924 -1.28257,-0.49268 -2.56608,-0.98634 -3.85061,-1.48101 -1.52941,-0.93699 -3.05975,-1.87494 -4.59112,-2.81391 -0.88762,-0.69015 -1.7762,-1.38127 -2.66581,-2.0734 -0.73951,-1.03573 -1.48,-2.07241 -2.2215,-3.11011 -0.69015,-1.03573 -1.38128,-2.07241 -2.07341,-3.11011 -0.64078,-0.78889 -1.28254,-1.57874 -1.92531,-2.36961 z" />
      <path
         style="opacity:0.95;fill:#081236;fill-opacity:1;fill-rule:evenodd;stroke:#003869;stroke-width:0.234331;stroke-linecap:round;stroke-opacity:1;paint-order:markers stroke fill"
         d="m 248.36751,199.28371 c 0.41966,-0.66712 1.85129,-0.96332 3.25814,-1.38297 1.40686,-0.41964 2.7891,-0.96267 3.974,-1.35759 1.18491,-0.39492 2.17223,-0.64175 2.91253,-0.91327 0.7403,-0.27152 1.23396,-0.56772 1.92509,-0.98734 0.69114,-0.41962 1.57973,-0.96265 1.94979,-0.54249 0.37006,0.42016 0.22197,1.8024 0.0244,2.88835 -0.19752,1.08596 -0.44435,1.87581 -0.74056,2.7397 -0.29621,0.86389 -0.64177,1.80185 -0.93797,2.66581 -0.2962,0.86397 -0.54302,1.65382 -0.81455,2.46835 -0.27152,0.81454 -0.56771,1.65376 -0.8639,2.32007 -0.29619,0.66632 -0.59239,1.15998 -0.88858,1.62893 -0.2962,0.46896 -0.59239,0.91325 -1.0607,1.0121 -0.46831,0.0988 -1.11007,-0.14798 -1.75191,-0.5427 -0.64184,-0.39471 -1.2836,-0.93774 -1.87609,-1.53006 -0.59249,-0.59233 -1.13551,-1.23408 -1.6046,-1.87581 -0.46908,-0.64173 -0.86401,-1.28349 -1.30825,-1.92529 -0.44424,-0.64181 -0.93789,-1.28356 -1.48102,-2.12277 -0.54313,-0.83921 -1.13552,-1.87589 -0.71586,-2.54302 z"
         id="path5788"
         inkscape:original-d="m 247.35477,198.91295 c 1.43264,-0.2952 2.86427,-0.5914 4.29491,-0.8886 1.3833,-0.54205 2.76554,-1.08507 4.14682,-1.62911 0.98835,-0.24584 1.97567,-0.49267 2.96201,-0.7405 0.49467,-0.29521 0.98833,-0.5914 1.481,-0.8886 0.88962,-0.54205 1.77821,-1.08507 2.66581,-1.62911 -0.1471,1.3833 -0.2952,2.76554 -0.4443,4.14681 -0.24584,0.79089 -0.49267,1.58074 -0.74051,2.36961 -0.34457,0.93899 -0.69013,1.87694 -1.0367,2.81391 -0.24584,0.79089 -0.49267,1.58074 -0.7405,2.36961 -0.29521,0.84025 -0.5914,1.67947 -0.8886,2.51771 -0.29521,0.49467 -0.59141,0.98833 -0.88861,1.481 -0.2952,0.44531 -0.5914,0.8896 -0.8886,1.33291 -0.64078,-0.24584 -1.28254,-0.49267 -1.92531,-0.74051 -0.64078,-0.54204 -1.28253,-1.08507 -1.9253,-1.6291 -0.54205,-0.64078 -1.08507,-1.28254 -1.62911,-1.92531 -0.39394,-0.64078 -0.78887,-1.28254 -1.1848,-1.9253 -0.49268,-0.64079 -0.98634,-1.28254 -1.48101,-1.92531 -0.59141,-1.03572 -1.1838,-2.07241 -1.7772,-3.11011 z" />
      <path
         style="opacity:0.95;fill:#081236;fill-opacity:1;fill-rule:evenodd;stroke:#003869;stroke-width:0.234331;stroke-linecap:round;stroke-opacity:1;paint-order:markers stroke fill"
         d="m 243.43039,202.61642 c -0.32133,0.24663 -0.56816,1.38206 -0.98781,2.56671 -0.41964,1.18465 -1.01203,2.4188 -1.94987,3.57869 -0.93784,1.15988 -2.22135,2.24593 -3.4554,3.10979 -1.23404,0.86387 -2.41883,1.50563 -3.7271,2.27083 -1.30828,0.76521 -2.73988,1.65379 -4.09728,2.27088 -1.3574,0.61708 -2.64091,0.96264 -3.87508,1.28353 -1.23417,0.32089 -2.41895,0.61708 -3.43087,0.78993 -1.01191,0.17284 -1.85113,0.22221 -1.80185,0.98802 0.0493,0.76582 0.98723,2.24679 2.0241,3.48085 1.03688,1.23406 2.17229,2.22138 3.13491,3.13472 0.96261,0.91335 1.75247,1.75257 2.7893,2.51756 1.03682,0.765 2.32034,1.45613 3.35702,2.07329 1.03669,0.61716 1.82654,1.16019 2.64113,1.57963 0.81459,0.41944 1.65381,0.71564 2.61643,0.93765 0.96263,0.22202 2.04867,0.37011 2.69048,0.49375 0.6418,0.12364 0.83928,0.22238 1.60384,-0.5184 0.76456,-0.74077 2.09744,-2.32047 3.45506,-3.85089 1.35763,-1.53041 2.73987,-3.01139 3.974,-4.49234 1.23413,-1.48095 2.32018,-2.96193 3.45561,-4.7144 1.13542,-1.75247 2.3202,-3.77647 2.61694,-5.13369 0.29675,-1.35721 -0.29564,-2.04833 -1.23348,-2.71502 -0.93784,-0.6667 -2.22136,-1.30846 -3.15944,-1.92535 -0.93807,-0.61689 -1.53046,-1.20928 -2.17227,-1.90039 -0.64181,-0.69111 -1.33293,-1.48097 -1.9008,-2.29546 -0.56788,-0.8145 -1.01217,-1.65372 -1.43174,-2.39424 -0.41958,-0.74052 -0.81451,-1.38227 -1.13583,-1.13565 z"
         id="path5792"
         inkscape:original-d="m 243.35606,201.72686 c -0.24584,1.13644 -0.49267,2.27187 -0.74051,3.40631 -0.59141,1.23519 -1.1838,2.46934 -1.7772,3.70251 -1.28257,1.08709 -2.56608,2.17314 -3.85061,3.25821 -1.18383,0.64278 -2.36861,1.28454 -3.55442,1.92531 -1.43066,0.88962 -2.86227,1.7782 -4.29491,2.66581 -1.28256,0.34657 -2.56607,0.69213 -3.85061,1.0367 -1.18383,0.29721 -2.36861,0.5934 -3.55441,0.8886 -0.83826,0.0504 -1.67748,0.0997 -2.51771,0.1481 0.93899,1.48204 1.87694,2.96301 2.81391,4.44302 1.13646,0.98835 2.27187,1.97567 3.40631,2.96201 0.79088,0.84025 1.58074,1.67947 2.36961,2.5177 1.28456,0.69215 2.56807,1.38328 3.85061,2.07341 0.79088,0.54405 1.58074,1.08707 2.36961,1.62911 0.84025,0.2972 1.67947,0.5934 2.5177,0.8886 1.0871,0.1491 2.17314,0.2972 3.25821,0.4443 0.19848,0.0997 0.39594,0.19847 0.59241,0.2962 1.33393,-1.57877 2.6668,-3.15847 3.99871,-4.73921 1.3833,-1.48004 2.76554,-2.96101 4.14681,-4.44302 1.08709,-1.48003 2.17314,-2.96101 3.25821,-4.44301 1.18583,-2.02308 2.37061,-4.04708 3.55441,-6.07212 -0.59141,-0.69015 -1.1838,-1.38127 -1.7772,-2.07341 -1.28256,-0.64078 -2.56608,-1.28254 -3.85061,-1.9253 -0.59142,-0.59142 -1.18381,-1.18381 -1.77721,-1.77721 -0.69015,-0.78888 -1.38127,-1.57874 -2.07341,-2.36961 -0.44331,-0.83825 -0.8876,-1.67747 -1.3329,-2.51771 -0.39394,-0.64078 -0.78887,-1.28253 -1.1848,-1.9253 z" />
      <path
         style="opacity:0.95;fill:#081236;fill-opacity:1;fill-rule:evenodd;stroke:#003869;stroke-width:0.234331;stroke-linecap:round;stroke-opacity:1;paint-order:markers stroke fill"
         d="m 206.47981,252.03198 c -1.62878,5.4e-4 -2.81358,-0.93743 -3.80095,-1.75196 -0.98736,-0.81453 -1.77721,-1.50565 -2.56715,-2.29546 -0.78994,-0.78982 -1.57979,-1.6784 -2.39431,-2.51769 -0.81451,-0.83929 -1.65373,-1.62914 -2.39431,-2.41896 -0.74058,-0.78981 -1.38234,-1.57967 -1.85151,-2.32012 -0.46917,-0.74045 -0.76537,-1.43157 -0.29617,-1.82715 0.46919,-0.39557 1.70333,-0.4943 3.03609,-0.79057 1.33276,-0.29627 2.76437,-0.78993 4.31943,-1.33297 1.55507,-0.54304 3.23351,-1.13543 4.56626,-1.7525 1.33275,-0.61708 2.32006,-1.25883 3.35673,-1.99932 1.03666,-0.74049 2.1227,-1.5797 3.06056,-2.49289 0.93786,-0.91318 1.72771,-1.90049 2.39416,-2.76439 0.66644,-0.86391 1.20946,-1.60439 1.67841,-2.41881 0.46896,-0.81442 0.86388,-1.703 1.45675,-1.50516 0.59288,0.19783 1.38273,1.48134 2.19735,2.69082 0.81461,1.20947 1.65383,2.34488 2.46846,3.33218 0.81463,0.9873 1.60448,1.82652 2.66599,2.61621 1.06152,0.7897 2.39439,1.53018 3.65326,2.14719 1.25888,0.61701 2.44366,1.11067 3.48035,1.45612 1.03669,0.34545 1.92527,0.54291 2.76454,0.76512 0.83926,0.22221 1.62912,0.46904 1.35707,1.08589 -0.27205,0.61684 -1.60493,1.60416 -2.9378,2.51743 -1.33287,0.91328 -2.66574,1.7525 -4.24545,2.66578 -1.57972,0.91329 -3.40625,1.9006 -5.18346,2.83858 -1.77721,0.93797 -3.50502,1.82656 -5.33145,2.51771 -1.82643,0.69115 -3.7517,1.18481 -5.7512,1.90062 -1.9995,0.71581 -4.07286,1.65377 -5.70165,1.6543 z"
         id="path5796"
         inkscape:original-d="m 206.03474,252.96962 c -1.18381,-0.93697 -2.36861,-1.87494 -3.55442,-2.81391 -0.78888,-0.69015 -1.57873,-1.38127 -2.3696,-2.0734 -0.78889,-0.88762 -1.57874,-1.77621 -2.36961,-2.66581 -0.83825,-0.78889 -1.67747,-1.57874 -2.51771,-2.36961 -0.64078,-0.78888 -1.28254,-1.57874 -1.9253,-2.36961 -0.29521,-0.69015 -0.59141,-1.38127 -0.88861,-2.0734 1.2352,-0.0977 2.46934,-0.19647 3.70251,-0.2962 1.43267,-0.49268 2.86428,-0.98634 4.29492,-1.48101 1.6795,-0.59141 3.35794,-1.1838 5.03541,-1.7772 0.98836,-0.64079 1.97568,-1.28254 2.96201,-1.92531 1.0871,-0.83825 2.17314,-1.67747 3.25821,-2.51771 0.79089,-0.98636 1.58074,-1.97367 2.36961,-2.96201 0.54405,-0.73952 1.08707,-1.48 1.62911,-2.22151 0.39594,-0.88762 0.79087,-1.7762 1.1848,-2.6658 0.79089,1.28456 1.58074,2.56807 2.36961,3.85061 0.84025,1.13646 1.67947,2.27187 2.51771,3.40631 0.79088,0.84025 1.58073,1.67947 2.3696,2.51771 1.33394,0.74151 2.66681,1.482 3.99872,2.2215 1.18582,0.49468 2.3706,0.98834 3.55441,1.48101 0.88962,0.19847 1.7782,0.39593 2.66581,0.5924 0.79088,0.24784 1.58074,0.49467 2.3696,0.7405 -1.33193,0.98836 -2.6648,1.97568 -3.99871,2.96201 -1.33193,0.84026 -2.66481,1.67947 -3.99871,2.51771 -1.82561,0.98836 -3.65215,1.97567 -5.47972,2.96201 -1.72687,0.88962 -3.45468,1.77821 -5.18352,2.66581 -1.92434,0.49468 -3.84961,0.98834 -5.77591,1.481 -2.07245,0.93899 -4.14582,1.87694 -6.22022,2.81391 z" />
      <path
         style="opacity:0.95;fill:#081236;fill-opacity:1;fill-rule:evenodd;stroke:#003869;stroke-width:0.234331;stroke-linecap:round;stroke-opacity:1;paint-order:markers stroke fill"
         d="m 188.55907,203.08537 c -0.44468,0.27123 -0.88898,1.75224 -1.58007,3.0602 -0.69109,1.30796 -1.62905,2.44338 -2.59166,3.48003 -0.9626,1.03665 -1.94992,1.9746 -3.03588,2.81377 -1.08596,0.83917 -2.27074,1.57966 -3.48019,2.27079 -1.20944,0.69113 -2.44359,1.33288 -3.75173,1.9006 -1.30813,0.56772 -2.69038,1.06138 -4.22061,1.407 -1.53024,0.34562 -3.20868,0.54308 -3.80121,1.13614 -0.59254,0.59307 -0.0989,1.58039 0.54301,2.61706 0.64188,1.03668 1.43174,2.12273 2.27108,3.11001 0.83933,0.98728 1.72792,1.87586 2.61653,2.76448 0.88861,0.88861 1.77719,1.7772 2.96211,2.51745 1.18492,0.74025 2.6659,1.33264 3.94943,1.77686 1.28354,0.44423 2.36959,0.74042 3.72715,0.96246 1.35755,0.22204 2.98662,0.37014 4.59103,0.46884 1.60441,0.0987 3.18412,0.14807 4.71433,-0.0248 1.53021,-0.17289 3.0112,-0.56782 4.4675,-0.98745 1.45631,-0.41963 2.88792,-0.86392 4.07255,-1.38227 1.18463,-0.51834 2.12258,-1.11073 3.03605,-1.55505 0.91346,-0.44432 1.80204,-0.74052 2.81375,-1.50559 1.01171,-0.76507 2.14713,-1.99923 3.10973,-3.2333 0.9626,-1.23407 1.75245,-2.46822 2.41891,-3.50494 0.66646,-1.03671 1.20948,-1.87593 0.69174,-2.36968 -0.51775,-0.49374 -2.09746,-0.64184 -3.57841,-1.01189 -1.48095,-0.37004 -2.8632,-0.96244 -4.2208,-1.50551 -1.3576,-0.54308 -2.69048,-1.03674 -3.77659,-1.55494 -1.0861,-0.51821 -1.92531,-1.06123 -2.91273,-1.87568 -0.98742,-0.81445 -2.12283,-1.9005 -2.98681,-2.78906 -0.86398,-0.88856 -1.45637,-1.57969 -2.19688,-2.44362 -0.74052,-0.86393 -1.6291,-1.9006 -2.29573,-2.88789 -0.66663,-0.98728 -1.11092,-1.92523 -1.5556,-1.65399 z"
         id="path5800"
         inkscape:original-d="m 188.55888,201.87496 c -0.4433,1.482 -0.8876,2.96301 -1.3329,4.44301 -0.93699,1.13646 -1.87494,2.27188 -2.81391,3.40631 -0.98636,0.93899 -1.97368,1.87694 -2.96201,2.81391 -1.18383,0.74152 -2.36861,1.48201 -3.55441,2.22151 -1.2332,0.64278 -2.46735,1.28454 -3.70252,1.92531 -1.38129,0.49467 -2.76354,0.98833 -4.14681,1.481 -1.6775,0.19847 -3.35594,0.39594 -5.03542,0.5924 0.49468,0.98836 0.98834,1.97568 1.48101,2.96201 0.79088,1.08709 1.58074,2.17314 2.36961,3.25821 0.88962,0.88962 1.7782,1.77821 2.66581,2.66581 0.88962,0.88962 1.7782,1.77821 2.6658,2.66581 1.48204,0.59341 2.96301,1.1858 4.44302,1.77721 1.08709,0.2972 2.17314,0.5934 3.25821,0.8886 1.63014,0.1491 3.25921,0.2972 4.88731,0.4443 1.58077,0.0504 3.16048,0.0997 4.73922,0.1481 1.48203,-0.39394 2.96301,-0.78887 4.44301,-1.1848 1.43267,-0.44331 2.86428,-0.88761 4.29492,-1.33291 0.93899,-0.59141 1.87694,-1.1838 2.81391,-1.7772 0.88962,-0.29521 1.7782,-0.59141 2.66581,-0.88861 1.13645,-1.23319 2.27187,-2.46734 3.40631,-3.70251 0.79088,-1.23319 1.58073,-2.46734 2.3696,-3.70251 0.54405,-0.83825 1.08707,-1.67747 1.62911,-2.51771 -1.57877,-0.1471 -3.15848,-0.2952 -4.73922,-0.4443 -1.38129,-0.59141 -2.76354,-1.1838 -4.14681,-1.77721 -1.33193,-0.49267 -2.66481,-0.98633 -3.99871,-1.481 -0.83826,-0.54205 -1.67747,-1.08507 -2.51771,-1.62911 -1.13446,-1.08509 -2.26987,-2.17114 -3.40631,-3.25821 -0.59142,-0.69014 -1.18381,-1.38127 -1.77721,-2.0734 -0.88762,-1.03573 -1.7762,-2.07241 -2.66581,-3.11011 -0.44331,-0.93699 -0.8876,-1.87494 -1.3329,-2.81391 z" />
      <path
         style="opacity:0.95;fill:#081236;fill-opacity:1;fill-rule:evenodd;stroke:#003869;stroke-width:0.234331;stroke-linecap:round;stroke-opacity:1;paint-order:markers stroke fill"
         d="m 188.58405,243.31895 c -0.42029,0.37002 -0.96332,1.308 -1.43231,2.12256 -0.46899,0.81457 -0.86392,1.50568 -1.38216,2.14728 -0.51825,0.64159 -1.16001,1.23398 -1.87572,1.77696 -0.71571,0.54297 -1.50556,1.03663 -2.39419,1.60436 -0.88862,0.56773 -1.87594,1.20949 -1.97419,1.72822 -0.0982,0.51873 0.69161,0.91366 1.87633,1.11083 1.18472,0.19717 2.76442,0.19717 4.31949,0.19717 1.55507,0 3.08541,0 4.44303,0.0247 1.35762,0.0247 2.5424,0.0741 3.72715,0.0493 1.18475,-0.0247 2.36953,-0.12347 3.57893,-0.32099 1.20941,-0.19752 2.44356,-0.49372 2.36972,-1.061 -0.0738,-0.56729 -1.45607,-1.40651 -2.56687,-2.14695 -1.11079,-0.74044 -1.95001,-1.38219 -2.83866,-2.14732 -0.88866,-0.76514 -1.82662,-1.65373 -2.64124,-2.5176 -0.81462,-0.86386 -1.50575,-1.70308 -1.99929,-2.2216 -0.49354,-0.51851 -0.78973,-0.71597 -1.21002,-0.34595 z"
         id="path5804"
         inkscape:original-d="m 188.70698,242.75069 c -0.54203,0.93897 -1.08507,1.87694 -1.6291,2.81391 -0.39395,0.69215 -0.78887,1.38327 -1.18481,2.07341 -0.64078,0.59341 -1.28254,1.1858 -1.9253,1.7772 -0.78889,0.49468 -1.57874,0.98834 -2.36961,1.48101 -0.98636,0.64278 -1.97368,1.28453 -2.96201,1.9253 0.79088,0.39594 1.58074,0.79087 2.36961,1.18481 1.58077,0.001 3.16047,0.001 4.73921,0 1.5314,0.001 3.06174,0.001 4.59112,0 1.18582,0.0504 2.3706,0.0997 3.55441,0.1481 1.18582,-0.0977 2.3706,-0.19647 3.55441,-0.2962 1.23519,-0.29521 2.46934,-0.59141 3.70251,-0.88861 -1.3813,-0.83825 -2.76354,-1.67747 -4.14681,-2.51771 -0.83826,-0.64078 -1.67747,-1.28253 -2.51771,-1.9253 -0.93699,-0.88762 -1.87494,-1.77621 -2.81391,-2.66581 -0.69015,-0.83825 -1.38127,-1.67747 -2.07341,-2.51771 -0.2952,-0.19647 -0.5914,-0.39393 -0.8886,-0.5924 z" />
      <path
         style="opacity:0.95;fill:#081236;fill-opacity:1;fill-rule:evenodd;stroke:#003869;stroke-width:0.234331;stroke-linecap:round;stroke-opacity:1;paint-order:markers stroke fill"
         d="m 161.43213,223.6711 c -0.81503,0.0736 -1.65427,1.35714 -2.4935,2.5913 -0.83923,1.23416 -1.67845,2.41894 -2.46824,3.3568 -0.78979,0.93787 -1.53028,1.62899 -2.46814,2.32006 -0.93785,0.69107 -2.07327,1.38219 -3.38137,1.99927 -1.3081,0.61707 -2.78907,1.1601 -4.02327,1.62909 -1.2342,0.46898 -2.22152,0.86391 -2.98669,1.16011 -0.76517,0.29621 -1.30819,0.49367 -1.13516,1.01262 0.17302,0.51895 1.0616,1.35816 2.19712,2.24668 1.13551,0.88852 2.51775,1.82647 3.9741,2.71502 1.45636,0.88854 2.98671,1.72777 4.49241,2.51762 1.50571,0.78985 2.98669,1.53034 4.73923,2.32016 1.75255,0.78983 3.77655,1.62905 5.57845,2.32014 1.8019,0.6911 3.38161,1.23413 4.66516,1.75258 1.28354,0.51844 2.27086,1.0121 3.25771,0.91299 0.98684,-0.0991 1.97416,-0.79023 3.03551,-1.60476 1.06135,-0.81453 2.19676,-1.75249 3.15937,-2.61637 0.96261,-0.86389 1.75246,-1.65374 2.69055,-2.41901 0.93809,-0.76527 2.02413,-1.50575 2.91256,-2.39418 0.88842,-0.88842 1.57955,-1.9251 2.07319,-2.7889 0.49365,-0.86381 0.78984,-1.55493 0.24744,-1.97473 -0.5424,-0.4198 -1.92463,-0.5679 -3.28218,-0.86396 -1.35755,-0.29607 -2.69043,-0.74036 -4.17145,-1.23403 -1.48102,-0.49368 -3.11009,-1.0367 -4.51708,-1.70297 -1.407,-0.66628 -2.59178,-1.45613 -3.72729,-2.36933 -1.13551,-0.91319 -2.22156,-1.94987 -3.20901,-3.08524 -0.98745,-1.13537 -1.87603,-2.36952 -2.71528,-3.55433 -0.83926,-1.18481 -1.62912,-2.32023 -2.44414,-2.24663 z"
         id="path5808"
         inkscape:original-d="m 161.45649,222.46092 c -0.83823,1.28454 -1.67747,2.56808 -2.5177,3.85062 -0.83826,1.18582 -1.67748,2.3706 -2.51771,3.55441 -0.73952,0.69215 -1.48001,1.38327 -2.22151,2.07341 -1.13446,0.69214 -2.26987,1.38327 -3.40631,2.0734 -1.48004,0.54405 -2.96101,1.08707 -4.44302,1.62911 -0.98635,0.39594 -1.97367,0.79087 -2.962,1.1848 -0.54205,0.19847 -1.08507,0.39594 -1.62911,0.5924 0.88962,0.84026 1.77821,1.67947 2.66581,2.51771 1.3833,0.93899 2.76554,1.87694 4.14681,2.81391 1.5314,0.84025 3.06175,1.67947 4.59112,2.51771 1.48203,0.74152 2.96301,1.482 4.44301,2.22151 2.02508,0.84025 4.04908,1.67947 6.07212,2.5177 1.58077,0.54405 3.16048,1.08707 4.73922,1.62911 0.98835,0.49468 1.97567,0.98833 2.96201,1.481 0.98835,-0.69015 1.97567,-1.38127 2.962,-2.0734 1.13646,-0.93699 2.27188,-1.87494 3.40632,-2.81391 0.79088,-0.78889 1.58073,-1.57874 2.3696,-2.36961 1.08709,-0.73952 2.17314,-1.48 3.25821,-2.22151 0.69215,-1.03572 1.38327,-2.0724 2.07341,-3.11011 0.29721,-0.69015 0.5934,-1.38127 0.8886,-2.0734 -1.3813,-0.14711 -2.76354,-0.2952 -4.14681,-0.44431 -1.33193,-0.44331 -2.66481,-0.8876 -3.99871,-1.3329 -1.62814,-0.54205 -3.25721,-1.08507 -4.88732,-1.6291 -1.18383,-0.78889 -2.36861,-1.57874 -3.55441,-2.36961 -1.08509,-1.03573 -2.17114,-2.07241 -3.25821,-3.11011 -0.88762,-1.2332 -1.77621,-2.46734 -2.66581,-3.70251 -0.78888,-1.13446 -1.57874,-2.26988 -2.36961,-3.40632 z" />
      <path
         style="opacity:0.95;fill:#081236;fill-opacity:1;fill-rule:evenodd;stroke:#003869;stroke-width:0.234331;stroke-linecap:round;stroke-opacity:1;paint-order:markers stroke fill"
         d="m 133.367,202.91256 c -0.4941,0.19719 -0.9384,1.57946 -1.35802,2.64072 -0.41962,1.06127 -0.81455,1.80176 -1.43151,2.54206 -0.61696,0.7403 -1.45618,1.48079 -2.19675,2.22136 -0.74058,0.74058 -1.38234,1.48107 -2.17197,2.07333 -0.78963,0.59227 -1.72758,1.03656 -2.31994,1.30808 -0.59235,0.27151 -0.83919,0.37025 -0.59224,1.01272 0.24695,0.64247 0.98744,1.82724 1.80208,2.96265 0.81464,1.13541 1.70322,2.22146 2.44364,3.25822 0.74041,1.03676 1.3328,2.02407 2.32029,3.23349 0.98749,1.20943 2.36974,2.64103 3.50514,3.89993 1.1354,1.25891 2.02398,2.34495 2.76448,3.25825 0.74051,0.9133 1.3329,1.65379 2.14752,2.02349 0.81462,0.3697 1.8513,0.3697 2.81367,0.14745 0.96236,-0.22226 1.85094,-0.66655 2.88766,-1.18491 1.03671,-0.51835 2.22149,-1.11074 3.33213,-1.80185 1.11064,-0.6911 2.14732,-1.48095 3.18394,-2.44354 1.03662,-0.96258 2.0733,-2.09799 3.15938,-3.28281 1.08609,-1.18482 2.2215,-2.41897 3.13475,-3.50498 0.91326,-1.08602 1.60438,-2.02397 1.08654,-2.4437 -0.51784,-0.41973 -2.24564,-0.321 -3.60311,-0.49349 -1.35746,-0.17249 -2.34477,-0.61678 -3.43087,-1.18443 -1.0861,-0.56765 -2.27088,-1.25877 -3.62847,-2.02399 -1.3576,-0.76521 -2.88795,-1.60443 -4.12221,-2.4682 -1.23426,-0.86377 -2.17221,-1.75235 -3.08549,-2.59161 -0.91328,-0.83926 -1.80186,-1.62911 -2.6412,-2.51765 -0.83933,-0.88853 -1.62919,-1.87585 -2.29576,-2.86315 -0.66657,-0.9873 -1.20959,-1.97462 -1.70368,-1.77744 z"
         id="path5812"
         inkscape:original-d="m 133.3174,201.72686 c -0.4433,1.38327 -0.8876,2.76554 -1.3329,4.14681 -0.39394,0.74152 -0.78887,1.48201 -1.18481,2.22151 -0.83825,0.74152 -1.67747,1.482 -2.5177,2.22151 -0.64078,0.74151 -1.28254,1.482 -1.92531,2.2215 -0.93699,0.44531 -1.87494,0.88961 -2.81391,1.33291 -0.24584,0.0997 -0.49267,0.19846 -0.7405,0.2962 0.74152,1.18583 1.482,2.37061 2.22151,3.55441 0.88962,1.08709 1.7782,2.17314 2.6658,3.25821 0.59342,0.98836 1.18581,1.97567 1.77721,2.96201 1.3833,1.43267 2.76554,2.86428 4.14681,4.29491 0.88962,1.0871 1.77821,2.17314 2.66581,3.25821 0.59342,0.74152 1.18581,1.48201 1.77721,2.22151 1.03772,0.001 2.0744,0.001 3.11011,0 0.88962,-0.44331 1.7782,-0.8876 2.66581,-1.3329 1.18582,-0.59142 2.3706,-1.18381 3.55441,-1.77721 1.03772,-0.78888 2.0744,-1.57874 3.11011,-2.36961 1.03772,-1.13446 2.0744,-2.26987 3.11011,-3.40631 1.13646,-1.23319 2.27187,-2.46734 3.40631,-3.70251 0.69215,-0.93699 1.38327,-1.87494 2.07341,-2.81391 -1.72688,0.0997 -3.45468,0.19847 -5.18352,0.2962 -0.98636,-0.44331 -1.97367,-0.8876 -2.96201,-1.3329 -1.18383,-0.69015 -2.36861,-1.38127 -3.55441,-2.07341 -1.5294,-0.83825 -3.05975,-1.67747 -4.59112,-2.51771 -0.93699,-0.88762 -1.87494,-1.7762 -2.81391,-2.66581 -0.88762,-0.78888 -1.7762,-1.57873 -2.6658,-2.3696 -0.78889,-0.98636 -1.57874,-1.97368 -2.36961,-2.96201 -0.54205,-0.98636 -1.08507,-1.97368 -1.62911,-2.96201 z" />
      <ellipse
         style="opacity:0.95;fill:#081236;fill-opacity:0.0117647;fill-rule:evenodd;stroke:#081236;stroke-width:4.41556;stroke-linecap:round;stroke-dasharray:none;stroke-opacity:1;paint-order:markers stroke fill"
         id="path5868"
         cx="122.11396"
         cy="169.32321"
         rx="7.7156024"
         ry="7.968102" />
      <ellipse
         style="opacity:0.95;fill:#081236;fill-opacity:0.0117647;fill-rule:evenodd;stroke:#081236;stroke-width:4.41556;stroke-linecap:round;stroke-dasharray:none;stroke-opacity:1;paint-order:markers stroke fill"
         id="path5868-6"
         cx="162.15573"
         cy="138.10193"
         rx="7.7156024"
         ry="7.968102" />
      <ellipse
         style="opacity:0.95;fill:#081236;fill-opacity:0.0117647;fill-rule:evenodd;stroke:#081236;stroke-width:4.41556;stroke-linecap:round;stroke-dasharray:none;stroke-opacity:1;paint-order:markers stroke fill"
         id="path5868-68"
         cx="200.56473"
         cy="163.08476"
         rx="7.7156024"
         ry="7.968102" />
      <ellipse
         style="opacity:0.95;fill:#081236;fill-opacity:0;fill-rule:evenodd;stroke:#081236;stroke-width:4.41556;stroke-linecap:round;stroke-dasharray:none;stroke-opacity:1;paint-order:markers stroke fill"
         id="path5868-8"
         cx="239.65356"
         cy="132.83344"
         rx="7.7156024"
         ry="7.968102" />
      <path
         style="opacity:0.95;fill:#081236;fill-opacity:0.0117647;fill-rule:evenodd;stroke:#081236;stroke-width:3.70254;stroke-linecap:round;stroke-dasharray:none;stroke-opacity:1;paint-order:markers stroke fill"
         d="m 191.78032,159.42097 -22.15673,-20.49878 22.85643,20.08217 z"
         id="path6360-8" />
      <path
         style="opacity:0.95;fill:#081236;fill-opacity:0.0117647;fill-rule:evenodd;stroke:#081236;stroke-width:4.16157;stroke-linecap:round;stroke-dasharray:none;stroke-opacity:1;paint-order:markers stroke fill"
         d="m 153.97623,142.6458 -26.52742,21.62988 27.36516,-21.19027 z"
         id="path6360-8-3" />
      <path
         style="opacity:0.95;fill:#081236;fill-opacity:1;fill-rule:evenodd;stroke:#081236;stroke-width:3.80867;stroke-linecap:round;stroke-dasharray:none;stroke-opacity:1;paint-order:markers stroke fill"
         d="m 231.59921,140.06331 -22.46186,21.39629 23.17117,-20.96142 z"
         id="path6360-8-1" />
    </g>
  </g>
  <g
     inkscape:groupmode="layer"
     id="layer1"
     inkscape:label="Image 1"
     transform="translate(-301.84013,-72.008665)" />
</svg>
